# xmcd
#
# Track frame offsets:
# 150
# 16799
# 28091
# 44330
# 59676
# 78827
# 92361
# 111954
# 131310
# 147959
#
# Disc length: 2155 seconds
#
# Revision: 0
# Processed by: cddbd v1.4PL0 Copyright (c) Steve Scherf et al.
# Submitted via: Axialis_AX_CDPlayer 2.6
#
DISCID=7908690a
DTITLE=Gary Allan - Alright Guy
DYEAR=1900
DGENRE=
TTITLE0=Man To Man
TTITLE1=The Devil's Candy
TTITLE2=What I'd Say
TTITLE3=Man Of Me
TTITLE4=Adobe Walls
TTITLE5=What's On My Mind
TTITLE6=Alright Guy
TTITLE7=The One
TTITLE8=I'm Doin' My Best
TTITLE9=I Don't Look Back
EXTD=
EXTT0=
EXTT1=
EXTT2=
EXTT3=
EXTT4=
EXTT5=
EXTT6=
EXTT7=
EXTT8=
EXTT9=
PLAYORDER=
